<?xml version="1.0" encoding="UTF-8"?>
<svg id="Layer_2" data-name="Layer 2" xmlns="http://www.w3.org/2000/svg" viewBox="0 0 328.93 225.99">
  <defs>
    <style>
      .cls-1 {
        fill: #264962;
      }

      .cls-2 {
        fill: #22364e;
      }

      .cls-3 {
        fill: #2e5268;
      }

      .cls-4 {
        fill: #274861;
      }

      .cls-5 {
        fill: #e1b951;
      }

      .cls-6 {
        fill: #1b3e55;
      }
    </style>
  </defs>
  <g id="Layer_1-2" data-name="Layer 1">
    <g>
      <path class="cls-1" d="M259,108.06c-2.09,4.14-1.44,7.51-2.47,12.04-.72,3.18-4.92,16.39-4.09,17.95l24.59,19.55c7.95-2.28,16.73-2.5,21.17,5.76,9.08,16.87-15.06,30.89-25.21,15.21-3.4-5.25-1.45-9.82-1.45-15.47l-22.04-18.02c-16.05,37.92-47.6,65.01-85,80.91-33.55-14.39-62.9-38.21-79.99-70.89l-23.01,15.97c-1.63,2.67.57,6.28.44,9.35-.65,15.9-22.32,24.4-32.77,10.97-14.01-18.02,7.66-40.86,25.53-26.43l26.21-17.55c-5.62-15.58-9.6-31.66-9.91-48.35-.84-.87-20.18.62-24.28-.22-6.19-1.28-15.11-11.83-20.71-13.37-2.2-.61-6.27,2.46-9.55,2.64-17.96.98-23.41-26.05-5.26-30.33,2.48-.59,7.52.63,9.33-.6,1.25-.84,17.4-22.58,17.96-24.16,1.43-4.01-2.16-5.84-3.04-9.89C30.3-.46,63.1-8.99,70.79,11.77c5.79,15.65-10.34,29.45-25.63,24.41l-18.14,26.38c3.8,5.53,2.87,11.02,3.14,17.35,5.82,1.59,11.2,8.07,16.26,10.23,3.64,1.56,16.55,1.32,21.16.98,1.24-.09,2.73.31,3.41-1.06v-44c.1-.68.03-1.39.49-1.98,1.25-1.79,20.58-5.95,24.72-7.31,11.72-3.83,24.05-8.79,35.46-13.54,5.4-2.24,31.25-15.33,34.33-14.72,18.73,8.4,37.35,17.4,56.75,24.29,5,1.78,33,9.46,34.28,10.72,2.02,1.98.95,49.57,1.97,56.53h33c3.13-16.41,25.09-20.48,33.84-6.34,12.84,20.75-17.49,40.75-31.66,19.66-.87-1.29-.91-3.39-1.69-4.34-1.12-1.38-3.13-.73-3.48-.98-.11-.08.27-1.35-.2-1.75-1.41-1.24-25.09.44-29.18-.3-1.22.23-.42,1.64-.62,2.05ZM50.71,8.27c-11.94,2.71-9.06,22.2,3.53,20.61,14.46-1.82,11.16-23.95-3.53-20.61ZM225.35,61.71c-19.04-15.19-44.66-7.25-50.83,16.36-1.75,6.69-.7,8.41.06,15.05-.7.84-2.57.64-3.25,1.26-17.03,15.65-36.82,29.02-55.1,43.64-3.7,2.96-8.73,3.74-9.23,9.65s7.26,8.66,8.15,14.23l7.84-.84c-.81,3.33,1.92,3.09,3.44,5.04,1.3,1.66,4.32,7.56,4.7,7.81,2.71,1.72,12.16-3.87,11.89-7.27-.23-2.81-10.41-12.37-8.94-14.47l4.81-2,11.6,11.93c2.25-.01,5.29-4.32,6.85-5.69,1.98-1.74,5.28-.11,3.21-6.41-1.7-5.19-9.42-7.64-8.44-13.78l35.37-26.01c26.33,20.01,60.35-9.03,46.71-38.86-2.67-5.84-4.7-6.33-8.86-9.65ZM13.73,65.21c-9.06,1.64-7.06,15.91,2.54,14.65,10.07-1.33,7.92-16.54-2.54-14.65ZM308.77,93.24c-12.65,1.42-11.73,19.1-1.21,20.76,17.43,2.76,17.08-22.55,1.21-20.76ZM283.74,164.23c-6.59,1.34-6.26,11.06-1.03,12.61,12.14,3.59,12.76-15,1.03-12.61ZM39.71,169.27c-10.41,2.37-8.3,21.15,3.75,20.83,14.88-.39,14.46-24.98-3.75-20.83Z"/>
      <path class="cls-3" d="M259,108.06c.2-.4-.6-1.82.62-2.05,4.09.74,27.77-.94,29.18.3.46.4.09,1.67.2,1.75h-3l-.5-.98-.5.98h-26Z"/>
      <path class="cls-2" d="M71,90.06c1.43-13.52-1.93-30.99,0-44v44Z"/>
      <polygon class="cls-6" points="286 108.06 285 108.06 285.5 107.08 286 108.06"/>
      <path class="cls-5" d="M225.35,61.71c4.16,3.32,6.19,3.81,8.86,9.65,13.64,29.83-20.38,58.87-46.71,38.86l-35.37,26.01c-.98,6.14,6.73,8.59,8.44,13.78,2.07,6.3-1.23,4.67-3.21,6.41-1.56,1.37-4.6,5.67-6.85,5.69l-11.6-11.93-4.81,2c-1.47,2.1,8.71,11.66,8.94,14.47.28,3.4-9.18,8.99-11.89,7.27-.38-.24-3.41-6.14-4.7-7.81-1.52-1.95-4.26-1.72-3.44-5.04l-7.84.84c-.89-5.57-8.63-8.61-8.15-14.23.5-5.92,5.53-6.69,9.23-9.65,18.28-14.62,38.07-27.99,55.1-43.64.68-.63,2.54-.43,3.25-1.26-.76-6.64-1.81-8.36-.06-15.05,6.17-23.61,31.8-31.55,50.83-16.36ZM218.43,88.51c4.42-2.97,5.22-4.37,4.6-9.97-1.43-12.83-22.43-11.04-20.38,3.37,1.1,7.75,7.67,9.64,14.65,8.13.78-.17.79-1.3,1.13-1.53Z"/>
      <path class="cls-4" d="M218.43,88.51c-.34.23-.35,1.36-1.13,1.53-6.97,1.51-13.54-.38-14.65-8.13-2.05-14.41,18.95-16.2,20.38-3.37.62,5.6-.18,7-4.6,9.97Z"/>
    </g>
  </g>
</svg>
